<svg version="1" xmlns="http://www.w3.org/2000/svg" width="1200" height="1200" viewBox="0 0 900.000000 900.000000"><path d="M426.7 69.1c-60.8 3.6-118.3 21.2-169.8 51.9-54.8 32.8-99 76-131.7 129-9.3 15-24 44.1-30 59.5-30.9 78.2-35.1 164.4-12.1 245.7 25.3 89.5 85.2 168.9 165.2 218.8 18.8 11.7 40.4 22.6 61.9 31.1 34.7 13.8 77.1 23.4 111.8 25.4 5.8.3 14.1.8 18.5 1 10.3.7 42.8-1 58.1-3 72.9-9.4 140.3-39.1 197.9-87.3 11.1-9.3 39.1-37.4 47.2-47.3 25.3-31.1 47.6-68.7 61.1-102.9 42.4-107 34.1-229-22.2-328.5-17.3-30.4-36.9-56-63-82.1-38.5-38.5-79.6-65.7-129-85.4-37.9-15-76.2-23.4-119.6-26-18.2-1.1-25.3-1.1-44.3.1zm-75.9 41c5.9.7 10.2 1.7 10.2 2.3 0 .6.9 14.7 2.1 31.4 1.2 16.7 1.9 30.5 1.7 30.8-.8.7-21.1 6.4-22.8 6.3-1.2 0-40.9-50-41.7-52.6-.4-1.2 36.9-20.3 38.7-19.8.8.2 6.1.9 11.8 1.6zm-56.4 45.2c9.1 12.5 16.6 23.3 16.6 24 0 .7-3.2 13.8-7.2 29.1l-7.2 27.9-18.6-.6c-10.2-.4-25.5-.7-34-.7h-15.5l-9.9-24.8c-5.4-13.6-10.5-26.2-11.2-27.9L206 179l10.3-8.5c14.2-11.9 29.9-23 45.7-32.4 10.6-6.4 13.7-7.9 14.6-6.9.6.7 8.6 11.6 17.8 24.1zm-98 71.2l14.6 20v42l6 31.9 5.9 32 19.2 19.2 19.1 19.1 2 24.5 2 24.4-20.4 27.9c-11.2 15.4-20.7 28.6-21.1 29.2-.5.8 11 19.8 29.8 49.5 16.9 26.6 31 48.6 31.4 49 .4.5 12.8-.5 27.6-2.1 14.9-1.7 28.9-3.1 31.1-3.2 3.7-.2 6 .9 22 10.8 25.3 15.7 109.7 65.6 110.9 65.6.6 0 9.5-5 19.8-11.1l18.8-11 30.7 10.3c16.9 5.6 40.8 14.2 53.2 18.9l22.4 8.7L653 675c17.3-3.8 32.1-7 32.8-7 1 0 34.8 19.3 38.1 21.6.2.2-3.7 4.7-8.7 10.1-11 11.9-29.5 28.8-42.2 38.4-17.2 13.1-50.3 33.9-53.8 33.9-.8 0-16.2-7.6-34.2-17-18-9.3-33.1-17-33.6-17s-10.4-3.8-21.9-8.4c-11.6-4.6-21.1-8.3-21.3-8.1-.2.1-.7 8.5-1.3 18.6-.6 10.1-1.2 18.6-1.5 18.8-.2.2-15.3-2.2-33.6-5.4-25.9-4.5-33.8-6.2-35.4-7.7-1.2-1-9.7-11.7-19-23.8-9.3-12-17.8-22.1-18.9-22.4-1.1-.2-26.3-3.9-56-8.1l-54-7.7-37-36.7c-35.1-34.9-37.9-37.4-53.7-48.6-9.9-7-16.8-12.5-16.8-13.4 0-1.5 3.2-34.6 4.4-45.6.3-2.2 1-10 1.7-17.4l1.2-13.4-3.4-3c-15.3-13.3-31.9-29-31.9-30.2 0-.8 3.9-11.3 8.6-23.2 4.7-12 9.6-24.5 10.9-27.9l2.3-6.1-18.1 4.4c-9.9 2.4-18.4 4-18.9 3.5-.4-.4-5.1-14.9-10.4-32.2l-9.6-31.5 12.6-25.4c7-13.9 12.5-25.5 12.3-25.8-.3-.2-6.8-.7-14.6-1-7.7-.3-14.1-.9-14.1-1.2 0-.3 3.6-7.9 8-16.8 14.9-30.7 29.3-52.9 50.8-78.6 4.1-4.8 7.8-8.5 8.3-8 .4.4 7.3 9.8 15.3 20.8zm207.1 22c3.8 25.2 3.8 25.6 1.9 27.4-1 .9-6.5 6-12.2 11.1l-10.3 9.4-13.8-14-13.8-13.9 4-15c2.2-8.3 4.1-15.1 4.3-15.3.4-.6 33.9-15.1 35-15.2.6 0 2.6 10.7 4.9 25.5zm-94 14.4l7.9.6 37.3 51.9C375.2 344 392 367.6 392 368c0 .3-19.4 8.1-43.1 17.3l-43 16.8-5.7-5.2c-42.2-38.5-58.2-53.4-58.5-54.3-.2-.6-2.4-11.4-4.7-24l-4.4-22.9 3.4-17.4 3.4-17.5 31.1.7c17 .4 34.6 1 39 1.4zm109.8 134c7.6 1.6 13.9 3 14.1 3.2.2.2-8.6 19.2-19.6 42.1l-20 41.7-15.8-12.7-15.7-12.7-9.7-16.8c-5.4-9.3-9.5-17.1-9.2-17.4 2.1-2.1 57.6-30.2 59.6-30.2 1.4 0 8.7 1.3 16.3 2.8zM503 431v17.9l-9.2 6.6c-5.7 4.1-10.1 6.5-11.7 6.5-4.5-.1-39.1-3.7-39.6-4.1-.2-.3 4.7-9.9 11-21.4l11.4-21 16.3-1.1c9-.6 17.5-1.2 19.1-1.2l2.7-.2v18zm-166 37.8l29.1 49.4-8.6 24.1c-4.8 13.3-9 24.5-9.4 24.9-.3.3-11.4 1.6-24.6 2.7-13.2 1.2-25.6 2.3-27.5 2.6l-3.6.5-22.2-38.3c-12.2-21-22.3-38.6-22.3-39.1-.2-1.1 58.4-76.7 59.3-76.3.4.1 13.8 22.4 29.8 49.5zm198.7 35.9c16.9 10.2 31.2 19 31.7 19.4.6.5-13.7 8.1-32.5 17.3l-33.4 16.4-9.6-29.2c-5.3-16-9.3-29.4-9-29.8.9-1.1 20.4-12.7 21.3-12.8.4 0 14.6 8.4 31.5 18.7zm-68.4 36.5c5.9 15.5 10.6 28.2 10.5 28.3-.2.1-14 9.7-30.6 21.4L416.8 612l-3.6-2.2c-6-3.7-47.7-30-48.1-30.4-.8-.7 20.3-59.6 21.5-60.1 1.3-.5 60.8-6 66.4-6.2h3.5l10.8 28.1zM786 567.9l4.8 6.5-12 17.9c-11.9 17.7-12 17.9-15.1 17.3-1.8-.3-15-1.7-29.4-3.3l-26.3-2.7v-63.1l24.8-5.5 24.7-5.6 11.9 16.1c6.5 8.8 14 18.9 16.6 22.4zM634.1 545c22.2 3.9 41.4 7.2 42.5 7.5 2.7.6 2.9 3.4 4.4 43.5.5 15.1 1.1 29.7 1.2 32.5l.2 4.9-27.9 13.2c-15.4 7.3-28.5 13.3-29.2 13.3-1.3.1-56.3-24.6-57.6-25.9-.5-.4-2.7-12.2-4.9-26.2l-4-25.4 16.3-22.2c9-12.2 16.9-22.2 17.5-22.2.7 0 19.4 3.2 41.5 7zm-93.6 54.2c3.4 15.9 6 28.8 5.7 28.8-.2 0-5.4-1.8-11.5-4.1l-11.2-4-9.3-19.6c-5.1-10.7-9.1-19.7-8.9-19.9.9-1 26.3-10.2 27.6-10.1 1 .2 3.2 8.2 7.6 28.9zm-43.6 7c5.5 9.8 10.1 18.1 10.1 18.5 0 .9-29.1 23-31.3 23.9-1.1.4-36.5-23.4-37-24.9-.2-.6 47.5-35.9 47.8-35.4.1.1 4.8 8.2 10.4 17.9zm248.6 30.9c8.3 1.1 15.1 2.2 15.3 2.4.8.8-20.3 31.5-21.7 31.5-.6 0-24-18.6-27-21.5-1.1-1.1.2-2.4 8.5-7.9l9.9-6.6c.1 0 6.8.9 15 2.1z"/><path d="M437.4 698.5l-8.8 14.7 3.8 15.7c2.1 8.6 4.1 16 4.4 16.5.2.4 5.3-6.7 11.3-15.8L459 713l-6.4-14.6-6.4-14.6-8.8 14.7z"/></svg>